<?xml version="1.0" encoding="UTF-8"?>
<!DOCTYPE svg PUBLIC "-//W3C//DTD SVG 1.1//EN" "http://www.w3.org/Graphics/SVG/1.1/DTD/svg11.dtd">
<svg version="1.2" width="61mm" height="25.4mm" viewBox="0 0 6100 2540" preserveAspectRatio="xMidYMid" fill-rule="evenodd" stroke-width="28.222" stroke-linejoin="round" xmlns="http://www.w3.org/2000/svg" xmlns:ooo="http://xml.openoffice.org/svg/export" xmlns:xlink="http://www.w3.org/1999/xlink" xmlns:presentation="http://sun.com/xmlns/staroffice/presentation" xmlns:smil="http://www.w3.org/2001/SMIL20/" xmlns:anim="urn:oasis:names:tc:opendocument:xmlns:animation:1.0" xml:space="preserve">
 <defs class="ClipPathGroup">
  <clipPath id="presentation_clip_path" clipPathUnits="userSpaceOnUse">
   <rect x="0" y="0" width="6100" height="2540"/>
  </clipPath>
  <clipPath id="presentation_clip_path_shrink" clipPathUnits="userSpaceOnUse">
   <rect x="6" y="2" width="6088" height="2535"/>
  </clipPath>
 </defs>
 <defs class="TextShapeIndex">
  <g ooo:slide="id1" ooo:id-list="id3 id4 id5 id6 id7 id8 id9 id10 id11 id12 id13 id14 id15 id16 id17 id18 id19 id20 id21 id22 id23 id24 id25 id26 id27 id28 id29 id30 id31 id32 id33 id34 id35 id36 id37 id38 id39 id40 id41 id42 id43 id44 id45 id46 id47 id48 id49 id50 id51 id52 id53 id54 id55"/>
 </defs>
 <defs class="EmbeddedBulletChars">
  <g id="bullet-char-template-57356" transform="scale(0.00048828125,-0.00048828125)">
   <path d="M 580,1141 L 1163,571 580,0 -4,571 580,1141 Z"/>
  </g>
  <g id="bullet-char-template-57354" transform="scale(0.00048828125,-0.00048828125)">
   <path d="M 8,1128 L 1137,1128 1137,0 8,0 8,1128 Z"/>
  </g>
  <g id="bullet-char-template-10146" transform="scale(0.00048828125,-0.00048828125)">
   <path d="M 174,0 L 602,739 174,1481 1456,739 174,0 Z M 1358,739 L 309,1346 659,739 1358,739 Z"/>
  </g>
  <g id="bullet-char-template-10132" transform="scale(0.00048828125,-0.00048828125)">
   <path d="M 2015,739 L 1276,0 717,0 1260,543 174,543 174,936 1260,936 717,1481 1274,1481 2015,739 Z"/>
  </g>
  <g id="bullet-char-template-10007" transform="scale(0.00048828125,-0.00048828125)">
   <path d="M 0,-2 C -7,14 -16,27 -25,37 L 356,567 C 262,823 215,952 215,954 215,979 228,992 255,992 264,992 276,990 289,987 310,991 331,999 354,1012 L 381,999 492,748 772,1049 836,1024 860,1049 C 881,1039 901,1025 922,1006 886,937 835,863 770,784 769,783 710,716 594,584 L 774,223 C 774,196 753,168 711,139 L 727,119 C 717,90 699,76 672,76 641,76 570,178 457,381 L 164,-76 C 142,-110 111,-127 72,-127 30,-127 9,-110 8,-76 1,-67 -2,-52 -2,-32 -2,-23 -1,-13 0,-2 Z"/>
  </g>
  <g id="bullet-char-template-10004" transform="scale(0.00048828125,-0.00048828125)">
   <path d="M 285,-33 C 182,-33 111,30 74,156 52,228 41,333 41,471 41,549 55,616 82,672 116,743 169,778 240,778 293,778 328,747 346,684 L 369,508 C 377,444 397,411 428,410 L 1163,1116 C 1174,1127 1196,1133 1229,1133 1271,1133 1292,1118 1292,1087 L 1292,965 C 1292,929 1282,901 1262,881 L 442,47 C 390,-6 338,-33 285,-33 Z"/>
  </g>
  <g id="bullet-char-template-9679" transform="scale(0.00048828125,-0.00048828125)">
   <path d="M 813,0 C 632,0 489,54 383,161 276,268 223,411 223,592 223,773 276,916 383,1023 489,1130 632,1184 813,1184 992,1184 1136,1130 1245,1023 1353,916 1407,772 1407,592 1407,412 1353,268 1245,161 1136,54 992,0 813,0 Z"/>
  </g>
  <g id="bullet-char-template-8226" transform="scale(0.00048828125,-0.00048828125)">
   <path d="M 346,457 C 273,457 209,483 155,535 101,586 74,649 74,723 74,796 101,859 155,911 209,963 273,989 346,989 419,989 480,963 531,910 582,859 608,796 608,723 608,648 583,586 532,535 482,483 420,457 346,457 Z"/>
  </g>
  <g id="bullet-char-template-8211" transform="scale(0.00048828125,-0.00048828125)">
   <path d="M -4,459 L 1135,459 1135,606 -4,606 -4,459 Z"/>
  </g>
  <g id="bullet-char-template-61548" transform="scale(0.00048828125,-0.00048828125)">
   <path d="M 173,740 C 173,903 231,1043 346,1159 462,1274 601,1332 765,1332 928,1332 1067,1274 1183,1159 1299,1043 1357,903 1357,740 1357,577 1299,437 1183,322 1067,206 928,148 765,148 601,148 462,206 346,322 231,437 173,577 173,740 Z"/>
  </g>
 </defs>
 <g>
  <g id="id2" class="Master_Slide">
   <g id="bg-id2" class="Background"/>
   <g id="bo-id2" class="BackgroundObjects"/>
  </g>
 </g>
 <g class="SlideGroup">
  <g>
   <g id="container-id1">
    <g id="id1" class="Slide" clip-path="url(#presentation_clip_path)">
     <g class="Page">
      <g class="Group">
       <g class="com.sun.star.drawing.ClosedBezierShape">
        <g id="id3">
         <rect class="BoundingBox" stroke="none" fill="none" x="501" y="991" width="1241" height="521"/>
         <path fill="rgb(51,51,51)" stroke="none" d="M 1654,1135 C 1623,1135 1593,1135 1562,1135 1554,1154 1547,1174 1539,1193 1529,1193 1520,1193 1510,1193 1502,1174 1495,1154 1487,1135 1454,1135 1422,1135 1389,1135 1381,1154 1374,1174 1366,1193 1356,1193 1347,1193 1337,1193 1329,1174 1322,1154 1314,1135 1281,1135 1249,1135 1216,1135 1208,1154 1201,1174 1193,1193 1183,1193 1174,1193 1164,1193 1156,1174 1149,1154 1141,1135 1092,1135 1042,1135 993,1135 950,1050 862,991 761,991 617,991 501,1107 501,1251 501,1394 617,1510 761,1510 862,1510 950,1451 993,1366 1213,1366 1434,1366 1654,1366 1683,1328 1712,1289 1741,1251 1712,1212 1683,1174 1654,1135 Z"/>
        </g>
       </g>
       <g class="com.sun.star.drawing.ClosedBezierShape">
        <g id="id4">
         <rect class="BoundingBox" stroke="none" fill="none" x="212" y="212" width="1790" height="1790"/>
         <path fill="rgb(51,51,51)" stroke="none" d="M 2000,559 C 2000,368 1845,213 1654,213 1289,213 924,213 559,213 368,213 213,368 213,559 213,675 270,777 358,840 358,842 357,845 357,847 357,1135 357,1424 357,1712 357,1759 396,1798 444,1798 540,1798 636,1798 732,1798 732,1846 732,1894 732,1942 684,1942 636,1942 588,1942 588,1962 588,1981 588,2000 636,2000 684,2000 732,2000 982,2000 1231,2000 1481,2000 1529,2000 1577,2000 1625,2000 1625,1981 1625,1962 1625,1942 1577,1942 1529,1942 1481,1942 1481,1894 1481,1846 1481,1798 1577,1798 1673,1798 1769,1798 1817,1798 1856,1759 1856,1712 1856,1424 1856,1135 1856,847 1856,845 1855,842 1855,840 1943,777 2000,675 2000,559 Z M 1424,1942 C 1212,1942 1001,1942 789,1942 789,1894 789,1846 789,1798 1001,1798 1212,1798 1424,1798 1424,1846 1424,1894 1424,1942 Z M 1769,1741 C 1673,1741 1577,1741 1481,1741 1231,1741 982,1741 732,1741 636,1741 540,1741 444,1741 428,1741 415,1728 415,1712 415,1693 415,1673 415,1654 876,1654 1337,1654 1798,1654 1798,1673 1798,1693 1798,1712 1798,1728 1785,1741 1769,1741 Z M 1798,1597 C 1337,1597 876,1597 415,1597 415,1355 415,1114 415,873 459,893 507,905 559,905 924,905 1289,905 1654,905 1706,905 1754,893 1798,873 1798,1114 1798,1355 1798,1597 Z M 1654,847 C 1289,847 924,847 559,847 400,847 271,718 271,559 271,400 400,271 559,271 924,271 1289,271 1654,271 1813,271 1942,400 1942,559 1942,718 1813,847 1654,847 Z"/>
        </g>
       </g>
       <g class="com.sun.star.drawing.ClosedBezierShape">
        <g id="id5">
         <rect class="BoundingBox" stroke="none" fill="none" x="472" y="299" width="405" height="521"/>
         <path fill="rgb(51,51,51)" stroke="none" d="M 847,472 C 847,377 770,299 674,299 579,299 501,377 501,472 501,482 501,492 501,501 492,501 482,501 472,501 472,607 472,713 472,818 607,818 741,818 876,818 876,713 876,607 876,501 866,501 857,501 847,501 847,492 847,482 847,472 Z M 559,472 C 559,409 611,357 674,357 738,357 789,409 789,472 789,482 789,492 789,501 713,501 636,501 559,501 559,492 559,482 559,472 Z M 818,761 C 722,761 626,761 530,761 530,693 530,626 530,559 626,559 722,559 818,559 818,626 818,693 818,761 Z"/>
        </g>
       </g>
       <g class="com.sun.star.drawing.ClosedBezierShape">
        <g id="id6">
         <rect class="BoundingBox" stroke="none" fill="none" x="616" y="587" width="117" height="146"/>
         <path fill="rgb(51,51,51)" stroke="none" d="M 645,695 C 645,707 645,719 645,732 664,732 684,732 703,732 703,719 703,707 703,695 720,685 732,667 732,645 732,614 706,588 674,588 642,588 616,614 616,645 616,667 628,685 645,695 Z"/>
        </g>
       </g>
       <g class="com.sun.star.drawing.ClosedBezierShape">
        <g id="id7">
         <rect class="BoundingBox" stroke="none" fill="none" x="959" y="443" width="239" height="221"/>
         <path fill="rgb(51,51,51)" stroke="none" d="M 1178,489 C 1154,497 1131,505 1107,512 1107,489 1107,466 1107,444 1087,444 1068,444 1049,444 1049,466 1049,489 1049,512 1025,505 1001,497 977,489 971,507 965,526 959,544 983,552 1007,559 1031,567 1016,588 1001,608 987,628 1002,640 1018,651 1033,662 1048,642 1063,621 1078,601 1092,621 1107,642 1122,662 1138,651 1153,640 1169,628 1154,608 1139,588 1124,567 1148,559 1172,552 1196,544 1190,526 1184,507 1178,489 Z"/>
        </g>
       </g>
       <g class="com.sun.star.drawing.ClosedBezierShape">
        <g id="id8">
         <rect class="BoundingBox" stroke="none" fill="none" x="1247" y="443" width="239" height="221"/>
         <path fill="rgb(51,51,51)" stroke="none" d="M 1467,489 C 1443,497 1419,505 1395,512 1395,489 1395,466 1395,444 1376,444 1356,444 1337,444 1337,466 1337,489 1337,512 1313,505 1289,497 1265,489 1259,507 1253,526 1247,544 1271,552 1295,559 1319,567 1304,588 1290,608 1275,628 1290,640 1306,651 1321,662 1336,642 1351,621 1366,601 1381,621 1396,642 1410,662 1426,651 1441,640 1457,628 1442,608 1427,588 1412,567 1436,559 1460,552 1485,544 1479,526 1473,507 1467,489 Z"/>
        </g>
       </g>
       <g class="com.sun.star.drawing.ClosedBezierShape">
        <g id="id9">
         <rect class="BoundingBox" stroke="none" fill="none" x="1535" y="443" width="239" height="221"/>
         <path fill="rgb(51,51,51)" stroke="none" d="M 1755,489 C 1731,497 1707,505 1683,512 1683,489 1683,466 1683,444 1664,444 1645,444 1625,444 1625,466 1625,489 1625,512 1601,505 1577,497 1553,489 1547,507 1542,526 1536,544 1560,552 1584,559 1607,567 1593,588 1578,608 1563,628 1579,640 1594,651 1610,662 1624,642 1639,621 1654,601 1669,621 1684,642 1699,662 1714,651 1730,640 1745,628 1730,608 1715,588 1701,567 1725,559 1749,552 1773,544 1767,526 1761,507 1755,489 Z"/>
        </g>
       </g>
       <g class="com.sun.star.drawing.ClosedBezierShape">
        <g id="id10">
         <rect class="BoundingBox" stroke="none" fill="none" x="558" y="1164" width="175" height="175"/>
         <path fill="rgb(255,255,215)" stroke="none" d="M 645,1164 C 598,1164 559,1203 559,1251 559,1298 598,1337 645,1337 693,1337 732,1298 732,1251 732,1203 693,1164 645,1164 Z M 645,1280 C 629,1280 616,1267 616,1251 616,1235 629,1222 645,1222 661,1222 674,1235 674,1251 674,1267 661,1280 645,1280 Z"/>
        </g>
       </g>
      </g>
      <g class="Group">
       <g class="com.sun.star.drawing.ClosedBezierShape">
        <g id="id11">
         <rect class="BoundingBox" stroke="none" fill="none" x="2250" y="750" width="284" height="703"/>
         <path fill="rgb(51,51,51)" stroke="none" d="M 2503,784 L 2503,889 C 2456,861 2418,847 2387,847 2341,847 2319,873 2319,925 2319,948 2323,966 2331,979 2340,993 2356,1007 2380,1022 L 2416,1045 2452,1067 C 2506,1101 2533,1159 2533,1242 2533,1306 2518,1357 2490,1395 2462,1433 2424,1452 2378,1452 2346,1452 2303,1439 2250,1413 L 2250,1292 C 2305,1334 2348,1355 2380,1355 2406,1355 2427,1347 2442,1329 2457,1311 2464,1288 2464,1258 2464,1236 2460,1219 2451,1207 2443,1194 2423,1178 2394,1158 L 2357,1134 C 2319,1109 2292,1082 2276,1055 2261,1027 2253,990 2253,943 2253,882 2265,835 2288,801 2312,767 2344,750 2386,750 2419,750 2458,762 2503,784 Z"/>
        </g>
       </g>
       <g class="com.sun.star.drawing.ClosedBezierShape">
        <g id="id12">
         <rect class="BoundingBox" stroke="none" fill="none" x="2594" y="759" width="290" height="691"/>
         <path fill="rgb(51,51,51)" stroke="none" d="M 2882,1434 C 2851,1444 2822,1449 2795,1449 2748,1449 2715,1433 2698,1401 2680,1370 2671,1312 2671,1227 L 2671,973 2594,973 2594,877 2671,877 2671,759 2740,759 2740,877 2875,877 2875,973 2740,973 2740,1243 C 2740,1274 2741,1295 2743,1305 2745,1315 2749,1324 2754,1331 2766,1345 2784,1352 2806,1352 2829,1352 2854,1347 2882,1335 L 2882,1434 Z"/>
        </g>
       </g>
       <g class="com.sun.star.drawing.ClosedBezierShape">
        <g id="id13">
         <rect class="BoundingBox" stroke="none" fill="none" x="2997" y="852" width="241" height="586"/>
         <path fill="rgb(51,51,51)" stroke="none" d="M 2997,1437 L 2997,865 3066,865 3066,965 C 3087,890 3123,853 3173,853 3190,853 3211,858 3237,868 L 3237,1042 3181,1042 3181,961 C 3177,959 3172,958 3166,958 3146,958 3128,967 3113,984 3098,1001 3082,1030 3066,1070 L 3066,1437 2997,1437 Z"/>
        </g>
       </g>
       <g class="com.sun.star.drawing.ClosedBezierShape">
        <g id="id14">
         <rect class="BoundingBox" stroke="none" fill="none" x="3295" y="852" width="303" height="598"/>
         <path fill="rgb(51,51,51)" stroke="none" d="M 3446,1449 C 3399,1449 3362,1422 3335,1368 3309,1315 3295,1242 3295,1149 3295,1058 3309,986 3335,933 3362,879 3399,853 3446,853 3493,853 3529,879 3556,933 3583,986 3596,1058 3596,1149 3596,1241 3583,1314 3556,1368 3529,1422 3492,1449 3446,1449 Z M 3446,1352 C 3470,1352 3489,1335 3503,1300 3517,1265 3524,1214 3524,1149 3524,1085 3517,1036 3503,1001 3489,966 3470,949 3446,949 3421,949 3402,966 3388,1001 3374,1036 3367,1085 3367,1149 3367,1214 3374,1265 3388,1300 3402,1335 3421,1352 3446,1352 Z"/>
        </g>
       </g>
       <g class="com.sun.star.drawing.ClosedBezierShape">
        <g id="id15">
         <rect class="BoundingBox" stroke="none" fill="none" x="3671" y="852" width="263" height="586"/>
         <path fill="rgb(51,51,51)" stroke="none" d="M 3671,1437 L 3671,865 3740,865 3740,965 C 3758,890 3791,853 3838,853 3901,853 3932,918 3932,1048 L 3932,1437 3864,1437 3864,1076 C 3864,1036 3861,1009 3854,993 3848,978 3837,970 3821,970 3796,970 3768,1003 3740,1069 L 3740,1437 3671,1437 Z"/>
        </g>
       </g>
       <g class="com.sun.star.drawing.ClosedBezierShape">
        <g id="id16">
         <rect class="BoundingBox" stroke="none" fill="none" x="4007" y="852" width="285" height="800"/>
         <path fill="rgb(51,51,51)" stroke="none" d="M 4033,1618 L 4039,1513 C 4078,1540 4110,1554 4138,1554 4193,1554 4221,1506 4221,1410 L 4223,1322 C 4207,1399 4175,1437 4129,1437 4091,1437 4062,1411 4040,1361 4018,1311 4008,1244 4008,1160 4008,1070 4020,996 4045,939 4070,881 4102,853 4143,853 4175,853 4202,877 4225,925 L 4225,865 4290,865 4290,1315 C 4290,1387 4287,1442 4282,1480 4276,1517 4266,1551 4251,1580 4226,1627 4189,1650 4137,1650 4108,1650 4073,1640 4033,1618 Z M 4222,1229 L 4222,1018 C 4199,972 4175,949 4150,949 4128,949 4111,967 4098,1002 4086,1037 4079,1088 4079,1154 4079,1211 4085,1255 4096,1286 4107,1316 4122,1331 4141,1331 4171,1331 4198,1297 4222,1229 Z"/>
        </g>
       </g>
       <g class="com.sun.star.drawing.ClosedBezierShape">
        <g id="id17">
         <rect class="BoundingBox" stroke="none" fill="none" x="4390" y="765" width="276" height="673"/>
         <path fill="rgb(51,51,51)" stroke="none" d="M 4390,1437 L 4390,765 4514,765 C 4557,765 4589,774 4610,790 4647,818 4665,874 4665,959 4665,1031 4649,1088 4618,1128 4588,1169 4546,1190 4493,1190 L 4459,1190 4459,1437 4390,1437 Z M 4459,1093 L 4487,1093 C 4558,1093 4593,1049 4593,961 4593,925 4586,900 4574,885 4561,869 4539,862 4507,862 L 4459,862 4459,1093 Z"/>
        </g>
       </g>
       <g class="com.sun.star.drawing.ClosedBezierShape">
        <g id="id18">
         <rect class="BoundingBox" stroke="none" fill="none" x="4719" y="852" width="310" height="598"/>
         <path fill="rgb(51,51,51)" stroke="none" d="M 4921,1373 C 4891,1423 4859,1449 4823,1449 4793,1449 4769,1433 4749,1402 4730,1371 4720,1332 4720,1284 4720,1224 4735,1176 4764,1139 4794,1103 4833,1084 4881,1084 L 4909,1084 4909,1046 C 4909,1010 4905,985 4896,971 4888,956 4874,949 4853,949 4822,949 4787,965 4747,998 L 4747,894 C 4790,866 4829,853 4864,853 4905,853 4934,868 4952,897 4969,927 4977,977 4977,1047 L 4977,1278 C 4977,1311 4979,1331 4982,1341 4985,1351 4991,1355 4999,1355 5002,1355 5009,1353 5022,1347 L 5028,1428 C 5006,1442 4989,1449 4979,1449 4949,1449 4929,1423 4921,1373 Z M 4909,1291 L 4909,1169 4899,1169 C 4828,1169 4792,1201 4792,1267 4792,1292 4796,1311 4805,1325 4813,1339 4824,1346 4839,1346 4861,1346 4884,1328 4909,1291 Z"/>
        </g>
       </g>
       <g class="com.sun.star.drawing.ClosedBezierShape">
        <g id="id19">
         <rect class="BoundingBox" stroke="none" fill="none" x="5086" y="852" width="261" height="598"/>
         <path fill="rgb(51,51,51)" stroke="none" d="M 5086,1410 L 5086,1299 C 5135,1335 5174,1352 5205,1352 5226,1352 5243,1345 5257,1330 5270,1316 5277,1297 5277,1275 5277,1249 5261,1226 5229,1208 L 5169,1173 C 5119,1144 5094,1093 5094,1019 5094,966 5106,926 5128,896 5150,867 5182,853 5222,853 5251,853 5287,861 5329,879 L 5329,979 C 5286,959 5250,949 5221,949 5201,949 5186,955 5176,966 5165,977 5160,992 5160,1010 5160,1033 5172,1053 5197,1068 L 5268,1112 C 5295,1129 5315,1150 5327,1174 5339,1198 5345,1228 5345,1266 5345,1322 5333,1367 5307,1399 5282,1432 5248,1449 5206,1449 5170,1449 5130,1436 5086,1410 Z"/>
        </g>
       </g>
       <g class="com.sun.star.drawing.ClosedBezierShape">
        <g id="id20">
         <rect class="BoundingBox" stroke="none" fill="none" x="5440" y="852" width="261" height="598"/>
         <path fill="rgb(51,51,51)" stroke="none" d="M 5441,1410 L 5441,1299 C 5489,1335 5529,1352 5559,1352 5581,1352 5598,1345 5611,1330 5625,1316 5631,1297 5631,1275 5631,1249 5615,1226 5583,1208 L 5523,1173 C 5474,1144 5449,1093 5449,1019 5449,966 5460,926 5483,896 5505,867 5536,853 5576,853 5606,853 5641,861 5683,879 L 5683,979 C 5641,959 5605,949 5575,949 5556,949 5541,955 5530,966 5520,977 5514,992 5514,1010 5514,1033 5527,1053 5552,1068 L 5623,1112 C 5650,1129 5670,1150 5682,1174 5694,1198 5700,1228 5700,1266 5700,1322 5687,1367 5662,1399 5636,1432 5603,1449 5561,1449 5525,1449 5485,1436 5441,1410 Z"/>
        </g>
       </g>
      </g>
      <g class="Group">
       <g class="com.sun.star.drawing.ClosedBezierShape">
        <g id="id21">
         <rect class="BoundingBox" stroke="none" fill="none" x="582" y="2183" width="112" height="142"/>
         <path fill="rgb(51,51,51)" stroke="none" d="M 691,2190 L 691,2212 C 675,2206 662,2203 651,2203 639,2203 628,2207 620,2217 612,2226 608,2238 608,2253 608,2268 613,2280 622,2290 631,2299 643,2304 657,2304 660,2304 664,2303 668,2303 L 668,2271 644,2271 644,2253 693,2253 693,2316 C 678,2321 664,2323 652,2324 631,2323 614,2317 601,2304 588,2291 582,2275 582,2254 582,2233 588,2216 601,2203 614,2190 631,2184 651,2184 663,2184 676,2186 691,2190 Z"/>
        </g>
       </g>
       <g class="com.sun.star.drawing.ClosedBezierShape">
        <g id="id22">
         <rect class="BoundingBox" stroke="none" fill="none" x="715" y="2204" width="103" height="121"/>
         <path fill="rgb(51,51,51)" stroke="none" d="M 817,2316 C 802,2321 788,2323 776,2324 756,2323 741,2318 731,2308 720,2298 715,2284 715,2265 715,2248 720,2233 730,2222 740,2210 753,2205 769,2205 785,2205 797,2209 805,2219 812,2229 816,2243 816,2263 L 816,2271 741,2271 C 742,2293 755,2305 779,2305 789,2305 802,2302 817,2297 L 817,2316 Z M 742,2253 L 790,2253 790,2252 C 790,2233 782,2224 767,2224 760,2224 754,2226 750,2231 745,2237 743,2244 742,2253 Z"/>
        </g>
       </g>
       <g class="com.sun.star.drawing.ClosedBezierShape">
        <g id="id23">
         <rect class="BoundingBox" stroke="none" fill="none" x="846" y="2204" width="95" height="118"/>
         <path fill="rgb(51,51,51)" stroke="none" d="M 846,2321 L 846,2207 871,2207 871,2228 C 877,2212 889,2205 906,2205 929,2205 940,2218 940,2244 L 940,2321 915,2321 915,2249 C 915,2241 914,2235 911,2232 909,2229 905,2228 900,2228 891,2228 881,2234 871,2247 L 871,2321 846,2321 Z"/>
        </g>
       </g>
       <g class="com.sun.star.drawing.ClosedBezierShape">
        <g id="id24">
         <rect class="BoundingBox" stroke="none" fill="none" x="969" y="2204" width="103" height="121"/>
         <path fill="rgb(51,51,51)" stroke="none" d="M 1071,2316 C 1056,2321 1042,2323 1030,2324 1010,2323 995,2318 985,2308 974,2298 969,2284 969,2265 969,2248 974,2233 984,2222 994,2210 1007,2205 1023,2205 1039,2205 1051,2209 1059,2219 1066,2229 1070,2243 1070,2263 L 1070,2271 995,2271 C 996,2293 1009,2305 1033,2305 1043,2305 1056,2302 1071,2297 L 1071,2316 Z M 996,2253 L 1044,2253 1044,2252 C 1044,2233 1036,2224 1021,2224 1014,2224 1008,2226 1004,2231 999,2237 997,2244 996,2253 Z"/>
        </g>
       </g>
       <g class="com.sun.star.drawing.ClosedBezierShape">
        <g id="id25">
         <rect class="BoundingBox" stroke="none" fill="none" x="1112" y="2204" width="88" height="118"/>
         <path fill="rgb(51,51,51)" stroke="none" d="M 1113,2321 L 1113,2207 1138,2207 1138,2228 C 1145,2212 1158,2205 1176,2205 1182,2205 1190,2206 1199,2208 L 1199,2243 1179,2243 1179,2226 C 1177,2226 1175,2226 1173,2226 1166,2226 1160,2227 1155,2230 1149,2234 1144,2240 1138,2248 L 1138,2321 1113,2321 Z"/>
        </g>
       </g>
       <g class="com.sun.star.drawing.ClosedBezierShape">
        <g id="id26">
         <rect class="BoundingBox" stroke="none" fill="none" x="1223" y="2204" width="112" height="121"/>
         <path fill="rgb(51,51,51)" stroke="none" d="M 1295,2308 C 1285,2318 1273,2323 1260,2324 1249,2323 1240,2320 1233,2314 1226,2308 1223,2300 1223,2291 1223,2279 1228,2269 1239,2262 1250,2254 1263,2251 1281,2251 L 1291,2251 1291,2243 C 1291,2236 1289,2231 1286,2228 1283,2225 1278,2224 1271,2224 1260,2224 1247,2227 1233,2233 L 1233,2213 C 1248,2207 1262,2205 1275,2205 1290,2205 1300,2208 1307,2214 1313,2220 1316,2230 1316,2243 L 1316,2289 C 1316,2296 1317,2300 1318,2302 1319,2304 1320,2305 1323,2305 1324,2305 1327,2304 1332,2304 L 1334,2319 C 1326,2322 1320,2323 1316,2324 1305,2323 1298,2318 1295,2308 Z M 1291,2293 L 1291,2268 1287,2268 C 1262,2268 1249,2274 1249,2288 1249,2293 1251,2297 1254,2300 1257,2303 1260,2305 1265,2305 1273,2305 1282,2301 1291,2293 Z"/>
        </g>
       </g>
       <g class="com.sun.star.drawing.ClosedBezierShape">
        <g id="id27">
         <rect class="BoundingBox" stroke="none" fill="none" x="1349" y="2156" width="102" height="169"/>
         <path fill="rgb(51,51,51)" stroke="none" d="M 1425,2321 L 1425,2300 C 1418,2316 1407,2323 1391,2324 1378,2323 1368,2318 1360,2308 1353,2298 1349,2285 1349,2268 1349,2249 1353,2234 1362,2222 1371,2210 1383,2205 1397,2205 1410,2205 1419,2209 1425,2219 L 1425,2157 1450,2157 1450,2321 1425,2321 Z M 1425,2237 C 1416,2228 1408,2224 1400,2224 1392,2224 1386,2227 1382,2234 1377,2241 1375,2252 1375,2266 1375,2290 1382,2303 1395,2303 1406,2303 1416,2296 1425,2282 L 1425,2237 Z"/>
        </g>
       </g>
       <g class="com.sun.star.drawing.ClosedBezierShape">
        <g id="id28">
         <rect class="BoundingBox" stroke="none" fill="none" x="1473" y="2204" width="110" height="121"/>
         <path fill="rgb(51,51,51)" stroke="none" d="M 1527,2324 C 1511,2323 1498,2318 1488,2308 1479,2297 1474,2282 1474,2264 1474,2246 1479,2231 1488,2220 1498,2210 1511,2205 1527,2205 1545,2205 1558,2210 1568,2221 1577,2231 1582,2246 1582,2264 1582,2282 1577,2297 1568,2307 1558,2318 1545,2323 1527,2324 Z M 1527,2305 C 1536,2305 1543,2301 1548,2294 1553,2287 1556,2277 1556,2264 1556,2251 1553,2241 1548,2234 1543,2227 1536,2224 1527,2224 1519,2224 1512,2227 1507,2234 1502,2241 1500,2251 1500,2264 1500,2277 1502,2287 1507,2294 1512,2301 1519,2305 1527,2305 Z"/>
        </g>
       </g>
       <g class="com.sun.star.drawing.ClosedBezierShape">
        <g id="id29">
         <rect class="BoundingBox" stroke="none" fill="none" x="1621" y="2204" width="87" height="118"/>
         <path fill="rgb(51,51,51)" stroke="none" d="M 1621,2321 L 1621,2207 1646,2207 1646,2228 C 1653,2212 1666,2205 1684,2205 1690,2205 1698,2206 1707,2208 L 1707,2243 1687,2243 1687,2226 C 1685,2226 1683,2226 1681,2226 1674,2226 1668,2227 1663,2230 1657,2234 1652,2240 1646,2248 L 1646,2321 1621,2321 Z"/>
        </g>
       </g>
       <g class="com.sun.star.drawing.ClosedBezierShape">
        <g id="id30">
         <rect class="BoundingBox" stroke="none" fill="none" x="1863" y="2204" width="93" height="121"/>
         <path fill="rgb(51,51,51)" stroke="none" d="M 1863,2316 L 1863,2295 C 1880,2301 1894,2305 1905,2305 1913,2305 1919,2303 1924,2300 1929,2297 1931,2293 1931,2289 1931,2284 1925,2279 1914,2275 L 1892,2268 C 1875,2263 1866,2253 1866,2238 1866,2227 1870,2219 1878,2213 1886,2207 1897,2205 1911,2205 1921,2205 1934,2206 1949,2210 L 1949,2229 C 1934,2225 1921,2224 1911,2224 1904,2224 1899,2225 1895,2227 1892,2229 1890,2232 1890,2236 1890,2241 1894,2245 1903,2248 L 1928,2256 C 1937,2260 1944,2264 1949,2269 1953,2274 1955,2280 1955,2287 1955,2298 1950,2307 1941,2314 1932,2320 1920,2323 1905,2324 1892,2323 1878,2321 1863,2316 Z"/>
        </g>
       </g>
       <g class="com.sun.star.drawing.ClosedBezierShape">
        <g id="id31">
         <rect class="BoundingBox" stroke="none" fill="none" x="1988" y="2156" width="69" height="166"/>
         <path fill="rgb(51,51,51)" stroke="none" d="M 2028,2321 C 2028,2289 2028,2257 2028,2226 2015,2226 2001,2226 1988,2226 1988,2219 1988,2213 1988,2207 2010,2207 2031,2207 2053,2207 2053,2245 2053,2283 2053,2321 2045,2321 2036,2321 2028,2321 Z M 2026,2186 C 2026,2176 2026,2166 2026,2157 2036,2157 2046,2157 2056,2157 2056,2166 2056,2176 2056,2186 2046,2186 2036,2186 2026,2186 Z"/>
        </g>
       </g>
       <g class="com.sun.star.drawing.ClosedBezierShape">
        <g id="id32">
         <rect class="BoundingBox" stroke="none" fill="none" x="2107" y="2204" width="112" height="118"/>
         <path fill="rgb(51,51,51)" stroke="none" d="M 2107,2321 L 2107,2207 2129,2207 2129,2227 C 2135,2212 2142,2205 2150,2205 2162,2205 2169,2212 2172,2228 L 2169,2228 C 2176,2212 2185,2205 2195,2205 2203,2205 2209,2207 2213,2213 2216,2218 2218,2227 2218,2238 L 2218,2321 2196,2321 2196,2239 C 2196,2233 2196,2230 2195,2228 2194,2226 2193,2226 2191,2226 2186,2226 2180,2233 2173,2248 L 2173,2321 2151,2321 2151,2242 C 2151,2235 2151,2231 2150,2229 2149,2227 2148,2226 2146,2226 2145,2226 2142,2228 2138,2232 2135,2236 2132,2241 2129,2248 L 2129,2321 2107,2321 Z"/>
        </g>
       </g>
       <g class="com.sun.star.drawing.ClosedBezierShape">
        <g id="id33">
         <rect class="BoundingBox" stroke="none" fill="none" x="2243" y="2204" width="102" height="158"/>
         <path fill="rgb(51,51,51)" stroke="none" d="M 2243,2360 L 2243,2206 2268,2206 2268,2227 C 2275,2212 2286,2204 2301,2204 2314,2204 2325,2210 2333,2220 2340,2230 2344,2243 2344,2260 2344,2279 2340,2294 2331,2306 2322,2318 2310,2323 2295,2323 2283,2323 2274,2319 2268,2309 L 2268,2360 2243,2360 Z M 2268,2291 C 2276,2300 2284,2305 2292,2305 2300,2305 2307,2301 2311,2294 2316,2286 2318,2276 2318,2262 2318,2238 2311,2226 2297,2226 2287,2226 2277,2232 2268,2245 L 2268,2291 Z"/>
        </g>
       </g>
       <g class="com.sun.star.drawing.ClosedBezierShape">
        <g id="id34">
         <rect class="BoundingBox" stroke="none" fill="none" x="2369" y="2156" width="69" height="166"/>
         <path fill="rgb(51,51,51)" stroke="none" d="M 2412,2321 C 2412,2272 2412,2224 2412,2176 2398,2176 2384,2176 2370,2176 2370,2169 2370,2163 2370,2157 2392,2157 2415,2157 2437,2157 2437,2211 2437,2266 2437,2321 2429,2321 2420,2321 2412,2321 Z"/>
        </g>
       </g>
       <g class="com.sun.star.drawing.ClosedBezierShape">
        <g id="id35">
         <rect class="BoundingBox" stroke="none" fill="none" x="2493" y="2204" width="103" height="121"/>
         <path fill="rgb(51,51,51)" stroke="none" d="M 2595,2316 C 2580,2321 2566,2323 2554,2324 2534,2323 2519,2318 2509,2308 2498,2298 2493,2284 2493,2265 2493,2248 2498,2233 2508,2222 2518,2210 2531,2205 2547,2205 2563,2205 2575,2209 2583,2219 2590,2229 2594,2243 2594,2263 L 2594,2271 2519,2271 C 2520,2293 2533,2305 2557,2305 2567,2305 2580,2302 2595,2297 L 2595,2316 Z M 2520,2253 L 2568,2253 2568,2252 C 2568,2233 2560,2224 2545,2224 2538,2224 2532,2226 2528,2231 2523,2237 2521,2244 2520,2253 Z"/>
        </g>
       </g>
       <g class="com.sun.star.drawing.ClosedBezierShape">
        <g id="id36">
         <rect class="BoundingBox" stroke="none" fill="none" x="2746" y="2156" width="102" height="169"/>
         <path fill="rgb(51,51,51)" stroke="none" d="M 2822,2321 L 2822,2300 C 2815,2316 2804,2323 2788,2324 2775,2323 2765,2318 2757,2308 2750,2298 2746,2285 2746,2268 2746,2249 2750,2234 2759,2222 2768,2210 2780,2205 2794,2205 2807,2205 2816,2209 2822,2219 L 2822,2157 2847,2157 2847,2321 2822,2321 Z M 2822,2237 C 2813,2228 2805,2224 2797,2224 2789,2224 2783,2227 2779,2234 2774,2241 2772,2252 2772,2266 2772,2290 2779,2303 2792,2303 2803,2303 2813,2296 2822,2282 L 2822,2237 Z"/>
        </g>
       </g>
       <g class="com.sun.star.drawing.ClosedBezierShape">
        <g id="id37">
         <rect class="BoundingBox" stroke="none" fill="none" x="2874" y="2204" width="103" height="121"/>
         <path fill="rgb(51,51,51)" stroke="none" d="M 2976,2316 C 2961,2321 2947,2323 2935,2324 2915,2323 2900,2318 2890,2308 2879,2298 2874,2284 2874,2265 2874,2248 2879,2233 2889,2222 2899,2210 2912,2205 2928,2205 2944,2205 2956,2209 2964,2219 2971,2229 2975,2243 2975,2263 L 2975,2271 2900,2271 C 2901,2293 2914,2305 2938,2305 2948,2305 2961,2302 2976,2297 L 2976,2316 Z M 2901,2253 L 2949,2253 2949,2252 C 2949,2233 2941,2224 2926,2224 2919,2224 2913,2226 2909,2231 2904,2237 2902,2244 2901,2253 Z"/>
        </g>
       </g>
       <g class="com.sun.star.drawing.ClosedBezierShape">
        <g id="id38">
         <rect class="BoundingBox" stroke="none" fill="none" x="3130" y="2204" width="101" height="121"/>
         <path fill="rgb(51,51,51)" stroke="none" d="M 3230,2317 C 3217,2321 3204,2323 3192,2324 3172,2323 3157,2318 3146,2308 3135,2298 3130,2283 3130,2264 3130,2245 3135,2231 3146,2220 3156,2210 3171,2205 3190,2205 3202,2205 3215,2207 3228,2211 L 3228,2230 C 3213,2226 3201,2224 3192,2224 3181,2224 3172,2227 3166,2234 3159,2241 3156,2251 3156,2264 3156,2277 3159,2287 3166,2294 3173,2301 3182,2305 3194,2305 3204,2305 3216,2302 3230,2298 L 3230,2317 Z"/>
        </g>
       </g>
       <g class="com.sun.star.drawing.ClosedBezierShape">
        <g id="id39">
         <rect class="BoundingBox" stroke="none" fill="none" x="3252" y="2204" width="109" height="121"/>
         <path fill="rgb(51,51,51)" stroke="none" d="M 3306,2324 C 3289,2323 3276,2318 3266,2308 3257,2297 3252,2282 3252,2264 3252,2246 3257,2231 3266,2220 3276,2210 3289,2205 3306,2205 3323,2205 3336,2210 3346,2221 3355,2231 3360,2246 3360,2264 3360,2282 3355,2297 3346,2307 3336,2318 3323,2323 3306,2324 Z M 3306,2305 C 3314,2305 3321,2301 3326,2294 3331,2287 3334,2277 3334,2264 3334,2251 3331,2241 3326,2234 3321,2227 3314,2224 3306,2224 3297,2224 3290,2227 3285,2234 3280,2241 3278,2251 3278,2264 3278,2277 3280,2287 3285,2294 3290,2301 3297,2305 3306,2305 Z"/>
        </g>
       </g>
       <g class="com.sun.star.drawing.ClosedBezierShape">
        <g id="id40">
         <rect class="BoundingBox" stroke="none" fill="none" x="3386" y="2204" width="95" height="118"/>
         <path fill="rgb(51,51,51)" stroke="none" d="M 3386,2321 L 3386,2207 3411,2207 3411,2228 C 3417,2212 3429,2205 3446,2205 3469,2205 3480,2218 3480,2244 L 3480,2321 3455,2321 3455,2249 C 3455,2241 3454,2235 3451,2232 3449,2229 3445,2228 3440,2228 3431,2228 3421,2234 3411,2247 L 3411,2321 3386,2321 Z"/>
        </g>
       </g>
       <g class="com.sun.star.drawing.ClosedBezierShape">
        <g id="id41">
         <rect class="BoundingBox" stroke="none" fill="none" x="3509" y="2185" width="104" height="140"/>
         <path fill="rgb(51,51,51)" stroke="none" d="M 3612,2320 C 3600,2322 3590,2323 3580,2323 3563,2323 3552,2320 3545,2314 3539,2308 3536,2296 3536,2280 L 3536,2228 3509,2228 3509,2210 3536,2210 3536,2186 3561,2186 3561,2210 3610,2210 3610,2228 3561,2228 3561,2283 C 3561,2289 3561,2293 3562,2295 3563,2297 3564,2299 3566,2300 3570,2303 3576,2305 3584,2305 3592,2305 3602,2304 3612,2302 L 3612,2320 Z"/>
        </g>
       </g>
       <g class="com.sun.star.drawing.ClosedBezierShape">
        <g id="id42">
         <rect class="BoundingBox" stroke="none" fill="none" x="3653" y="2204" width="87" height="118"/>
         <path fill="rgb(51,51,51)" stroke="none" d="M 3653,2321 L 3653,2207 3678,2207 3678,2228 C 3685,2212 3698,2205 3716,2205 3722,2205 3730,2206 3739,2208 L 3739,2243 3719,2243 3719,2226 C 3717,2226 3715,2226 3713,2226 3706,2226 3700,2227 3695,2230 3689,2234 3684,2240 3678,2248 L 3678,2321 3653,2321 Z"/>
        </g>
       </g>
       <g class="com.sun.star.drawing.ClosedBezierShape">
        <g id="id43">
         <rect class="BoundingBox" stroke="none" fill="none" x="3763" y="2204" width="112" height="121"/>
         <path fill="rgb(51,51,51)" stroke="none" d="M 3835,2308 C 3825,2318 3813,2323 3800,2324 3789,2323 3780,2320 3773,2314 3766,2308 3763,2300 3763,2291 3763,2279 3768,2269 3779,2262 3790,2254 3803,2251 3821,2251 L 3831,2251 3831,2243 C 3831,2236 3829,2231 3826,2228 3823,2225 3818,2224 3811,2224 3800,2224 3787,2227 3773,2233 L 3773,2213 C 3788,2207 3802,2205 3815,2205 3830,2205 3840,2208 3847,2214 3853,2220 3856,2230 3856,2243 L 3856,2289 C 3856,2296 3857,2300 3858,2302 3859,2304 3860,2305 3863,2305 3864,2305 3867,2304 3872,2304 L 3874,2319 C 3866,2322 3860,2323 3856,2324 3845,2323 3838,2318 3835,2308 Z M 3831,2293 L 3831,2268 3827,2268 C 3802,2268 3789,2274 3789,2288 3789,2293 3791,2297 3794,2300 3797,2303 3800,2305 3805,2305 3813,2305 3822,2301 3831,2293 Z"/>
        </g>
       </g>
       <g class="com.sun.star.drawing.ClosedBezierShape">
        <g id="id44">
         <rect class="BoundingBox" stroke="none" fill="none" x="3895" y="2204" width="93" height="121"/>
         <path fill="rgb(51,51,51)" stroke="none" d="M 3895,2316 L 3895,2295 C 3912,2301 3926,2305 3937,2305 3945,2305 3951,2303 3956,2300 3961,2297 3963,2293 3963,2289 3963,2284 3957,2279 3946,2275 L 3924,2268 C 3907,2263 3898,2253 3898,2238 3898,2227 3902,2219 3910,2213 3918,2207 3929,2205 3943,2205 3953,2205 3966,2206 3981,2210 L 3981,2229 C 3966,2225 3953,2224 3943,2224 3936,2224 3931,2225 3927,2227 3924,2229 3922,2232 3922,2236 3922,2241 3926,2245 3935,2248 L 3960,2256 C 3969,2260 3976,2264 3981,2269 3985,2274 3987,2280 3987,2287 3987,2298 3982,2307 3973,2314 3964,2320 3952,2323 3937,2324 3924,2323 3910,2321 3895,2316 Z"/>
        </g>
       </g>
       <g class="com.sun.star.drawing.ClosedBezierShape">
        <g id="id45">
         <rect class="BoundingBox" stroke="none" fill="none" x="4017" y="2204" width="103" height="121"/>
         <path fill="rgb(51,51,51)" stroke="none" d="M 4119,2316 C 4104,2321 4090,2323 4078,2324 4058,2323 4043,2318 4033,2308 4022,2298 4017,2284 4017,2265 4017,2248 4022,2233 4032,2222 4042,2210 4055,2205 4071,2205 4087,2205 4099,2209 4107,2219 4114,2229 4118,2243 4118,2263 L 4118,2271 4043,2271 C 4044,2293 4057,2305 4081,2305 4091,2305 4104,2302 4119,2297 L 4119,2316 Z M 4044,2253 L 4092,2253 4092,2252 C 4092,2233 4084,2224 4069,2224 4062,2224 4056,2226 4052,2231 4047,2237 4045,2244 4044,2253 Z"/>
        </g>
       </g>
       <g class="com.sun.star.drawing.ClosedBezierShape">
        <g id="id46">
         <rect class="BoundingBox" stroke="none" fill="none" x="4148" y="2163" width="95" height="159"/>
         <path fill="rgb(51,51,51)" stroke="none" d="M 4148,2321 L 4148,2207 4173,2207 4173,2228 C 4179,2212 4191,2205 4208,2205 4231,2205 4242,2218 4242,2244 L 4242,2321 4217,2321 4217,2249 C 4217,2241 4216,2235 4213,2232 4211,2229 4207,2228 4202,2228 4193,2228 4183,2234 4173,2247 L 4173,2321 4148,2321 Z M 4159,2192 C 4160,2173 4167,2164 4180,2164 4185,2164 4190,2165 4195,2168 L 4201,2172 C 4205,2174 4207,2175 4208,2175 4212,2175 4214,2171 4214,2164 L 4231,2164 C 4230,2182 4223,2192 4209,2192 4204,2192 4199,2190 4195,2187 L 4188,2183 C 4185,2181 4182,2180 4181,2180 4178,2180 4176,2184 4176,2192 L 4159,2192 Z"/>
        </g>
       </g>
       <g class="com.sun.star.drawing.ClosedBezierShape">
        <g id="id47">
         <rect class="BoundingBox" stroke="none" fill="none" x="4271" y="2204" width="112" height="121"/>
         <path fill="rgb(51,51,51)" stroke="none" d="M 4343,2308 C 4333,2318 4321,2323 4308,2324 4297,2323 4288,2320 4281,2314 4274,2308 4271,2300 4271,2291 4271,2279 4276,2269 4287,2262 4298,2254 4311,2251 4329,2251 L 4339,2251 4339,2243 C 4339,2236 4337,2231 4334,2228 4331,2225 4326,2224 4319,2224 4308,2224 4295,2227 4281,2233 L 4281,2213 C 4296,2207 4310,2205 4323,2205 4338,2205 4348,2208 4355,2214 4361,2220 4364,2230 4364,2243 L 4364,2289 C 4364,2296 4365,2300 4366,2302 4367,2304 4368,2305 4371,2305 4372,2305 4375,2304 4380,2304 L 4382,2319 C 4374,2322 4368,2323 4364,2324 4353,2323 4346,2318 4343,2308 Z M 4339,2293 L 4339,2268 4335,2268 C 4310,2268 4297,2274 4297,2288 4297,2293 4299,2297 4302,2300 4305,2303 4308,2305 4313,2305 4321,2305 4330,2301 4339,2293 Z"/>
        </g>
       </g>
       <g class="com.sun.star.drawing.ClosedBezierShape">
        <g id="id48">
         <rect class="BoundingBox" stroke="none" fill="none" x="4403" y="2204" width="93" height="121"/>
         <path fill="rgb(51,51,51)" stroke="none" d="M 4403,2316 L 4403,2295 C 4420,2301 4434,2305 4445,2305 4453,2305 4459,2303 4464,2300 4469,2297 4471,2293 4471,2289 4471,2284 4465,2279 4454,2275 L 4432,2268 C 4415,2263 4406,2253 4406,2238 4406,2227 4410,2219 4418,2213 4426,2207 4437,2205 4451,2205 4461,2205 4474,2206 4489,2210 L 4489,2229 C 4474,2225 4461,2224 4451,2224 4444,2224 4439,2225 4435,2227 4432,2229 4430,2232 4430,2236 4430,2241 4434,2245 4443,2248 L 4468,2256 C 4477,2260 4484,2264 4489,2269 4493,2274 4495,2280 4495,2287 4495,2298 4490,2307 4481,2314 4472,2320 4460,2323 4445,2324 4432,2323 4418,2321 4403,2316 Z"/>
        </g>
       </g>
       <g class="com.sun.star.drawing.ClosedBezierShape">
        <g id="id49">
         <rect class="BoundingBox" stroke="none" fill="none" x="4657" y="2204" width="93" height="121"/>
         <path fill="rgb(51,51,51)" stroke="none" d="M 4657,2316 L 4657,2295 C 4674,2301 4688,2305 4699,2305 4707,2305 4713,2303 4718,2300 4723,2297 4725,2293 4725,2289 4725,2284 4719,2279 4708,2275 L 4686,2268 C 4669,2263 4660,2253 4660,2238 4660,2227 4664,2219 4672,2213 4680,2207 4691,2205 4705,2205 4715,2205 4728,2206 4743,2210 L 4743,2229 C 4728,2225 4715,2224 4705,2224 4698,2224 4693,2225 4689,2227 4686,2229 4684,2232 4684,2236 4684,2241 4688,2245 4697,2248 L 4722,2256 C 4731,2260 4738,2264 4743,2269 4747,2274 4749,2280 4749,2287 4749,2298 4744,2307 4735,2314 4726,2320 4714,2323 4699,2324 4686,2323 4672,2321 4657,2316 Z"/>
        </g>
       </g>
       <g class="com.sun.star.drawing.ClosedBezierShape">
        <g id="id50">
         <rect class="BoundingBox" stroke="none" fill="none" x="4779" y="2204" width="103" height="121"/>
         <path fill="rgb(51,51,51)" stroke="none" d="M 4881,2316 C 4866,2321 4852,2323 4840,2324 4820,2323 4805,2318 4795,2308 4784,2298 4779,2284 4779,2265 4779,2248 4784,2233 4794,2222 4804,2210 4817,2205 4833,2205 4849,2205 4861,2209 4869,2219 4876,2229 4880,2243 4880,2263 L 4880,2271 4805,2271 C 4806,2293 4819,2305 4843,2305 4853,2305 4866,2302 4881,2297 L 4881,2316 Z M 4806,2253 L 4854,2253 4854,2252 C 4854,2233 4846,2224 4831,2224 4824,2224 4818,2226 4814,2231 4809,2237 4807,2244 4806,2253 Z"/>
        </g>
       </g>
       <g class="com.sun.star.drawing.ClosedBezierShape">
        <g id="id51">
         <rect class="BoundingBox" stroke="none" fill="none" x="4904" y="2204" width="103" height="160"/>
         <path fill="rgb(51,51,51)" stroke="none" d="M 4913,2356 L 4916,2336 C 4929,2341 4941,2343 4951,2344 4971,2343 4981,2334 4981,2315 L 4982,2298 C 4976,2313 4965,2321 4947,2321 4934,2321 4923,2316 4916,2306 4908,2296 4904,2282 4904,2266 4904,2248 4908,2233 4917,2222 4926,2210 4938,2205 4952,2205 4964,2205 4974,2209 4982,2219 L 4982,2207 5006,2207 5006,2296 C 5006,2310 5005,2321 5003,2329 5001,2336 4997,2343 4992,2349 4983,2358 4969,2362 4950,2363 4940,2362 4927,2360 4913,2356 Z M 4981,2279 L 4981,2237 C 4973,2228 4964,2224 4955,2224 4947,2224 4941,2227 4937,2234 4932,2241 4930,2251 4930,2265 4930,2276 4932,2285 4936,2291 4940,2297 4945,2300 4951,2300 4963,2300 4972,2293 4981,2279 Z"/>
        </g>
       </g>
       <g class="com.sun.star.drawing.ClosedBezierShape">
        <g id="id52">
         <rect class="BoundingBox" stroke="none" fill="none" x="5037" y="2206" width="95" height="119"/>
         <path fill="rgb(51,51,51)" stroke="none" d="M 5131,2207 L 5131,2321 5106,2321 5106,2300 C 5099,2316 5088,2323 5070,2324 5048,2323 5037,2310 5037,2284 L 5037,2207 5062,2207 5062,2279 C 5062,2287 5063,2293 5065,2296 5068,2299 5071,2301 5076,2301 5086,2301 5096,2294 5106,2280 L 5106,2207 5131,2207 Z"/>
        </g>
       </g>
       <g class="com.sun.star.drawing.ClosedBezierShape">
        <g id="id53">
         <rect class="BoundingBox" stroke="none" fill="none" x="5177" y="2204" width="87" height="118"/>
         <path fill="rgb(51,51,51)" stroke="none" d="M 5177,2321 L 5177,2207 5202,2207 5202,2228 C 5209,2212 5222,2205 5240,2205 5246,2205 5254,2206 5263,2208 L 5263,2243 5243,2243 5243,2226 C 5241,2226 5239,2226 5237,2226 5230,2226 5224,2227 5219,2230 5213,2234 5208,2240 5202,2248 L 5202,2321 5177,2321 Z"/>
        </g>
       </g>
       <g class="com.sun.star.drawing.ClosedBezierShape">
        <g id="id54">
         <rect class="BoundingBox" stroke="none" fill="none" x="5286" y="2204" width="113" height="121"/>
         <path fill="rgb(51,51,51)" stroke="none" d="M 5359,2308 C 5349,2318 5337,2323 5324,2324 5313,2323 5304,2320 5297,2314 5290,2308 5287,2300 5287,2291 5287,2279 5292,2269 5303,2262 5314,2254 5327,2251 5345,2251 L 5355,2251 5355,2243 C 5355,2236 5353,2231 5350,2228 5347,2225 5342,2224 5335,2224 5324,2224 5311,2227 5297,2233 L 5297,2213 C 5312,2207 5326,2205 5339,2205 5354,2205 5364,2208 5371,2214 5377,2220 5380,2230 5380,2243 L 5380,2289 C 5380,2296 5381,2300 5382,2302 5383,2304 5384,2305 5387,2305 5388,2305 5391,2304 5396,2304 L 5398,2319 C 5390,2322 5384,2323 5380,2324 5369,2323 5362,2318 5359,2308 Z M 5355,2293 L 5355,2268 5351,2268 C 5326,2268 5313,2274 5313,2288 5313,2293 5314,2297 5317,2300 5320,2303 5324,2305 5329,2305 5337,2305 5346,2301 5355,2293 Z"/>
        </g>
       </g>
       <g class="com.sun.star.drawing.ClosedBezierShape">
        <g id="id55">
         <rect class="BoundingBox" stroke="none" fill="none" x="5419" y="2204" width="93" height="121"/>
         <path fill="rgb(51,51,51)" stroke="none" d="M 5419,2316 L 5419,2295 C 5436,2301 5450,2305 5461,2305 5469,2305 5475,2303 5480,2300 5485,2297 5487,2293 5487,2289 5487,2284 5481,2279 5470,2275 L 5448,2268 C 5431,2263 5422,2253 5422,2238 5422,2227 5426,2219 5434,2213 5442,2207 5453,2205 5467,2205 5477,2205 5490,2206 5505,2210 L 5505,2229 C 5490,2225 5477,2224 5467,2224 5460,2224 5455,2225 5451,2227 5448,2229 5446,2232 5446,2236 5446,2241 5450,2245 5459,2248 L 5484,2256 C 5493,2260 5500,2264 5505,2269 5509,2274 5511,2280 5511,2287 5511,2298 5506,2307 5497,2314 5488,2320 5476,2323 5461,2324 5448,2323 5434,2321 5419,2316 Z"/>
        </g>
       </g>
      </g>
     </g>
    </g>
   </g>
  </g>
 </g>
</svg>